<?xml version="1.0" encoding="UTF-8" standalone="no"?><!DOCTYPE svg PUBLIC "-//W3C//DTD SVG 1.1//EN" "http://www.w3.org/Graphics/SVG/1.1/DTD/svg11.dtd"><svg width="100%" height="100%" viewBox="0 0 132 34" version="1.1" xmlns="http://www.w3.org/2000/svg" xmlns:xlink="http://www.w3.org/1999/xlink" xml:space="preserve" xmlns:serif="http://www.serif.com/" style="fill-rule:evenodd;clip-rule:evenodd;stroke-linejoin:round;stroke-miterlimit:2;"><g transform="matrix(1,0,0,1,-10.0957,0.884544)"><g transform="matrix(36,0,0,36,6.60147,26.7612)"><path d="M0.278,-0.724l-0,-0.044l-0.136,0c-0.026,0 -0.045,0.019 -0.045,0.046l0,0.841c0,0.031 0.019,0.046 0.045,0.046l0.136,-0l-0,-0.044l-0.107,0c-0.008,0 -0.014,-0.006 -0.014,-0.014l-0,-0.817c-0,-0.008 0.006,-0.014 0.014,-0.014l0.107,-0Z" style="fill:#ec4899;fill-rule:nonzero;"/></g><g transform="matrix(36,0,0,36,18.2295,26.7612)"><path d="M0.557,-0.612l-0,-0.078l-0.533,0l0,0.078l0.222,-0l0,0.612l0.088,-0l-0,-0.612l0.223,-0Z" style="fill:#ec4899;fill-rule:nonzero;"/></g><g transform="matrix(36,0,0,36,39.1455,26.7612)"><path d="M0.044,-0.768l0,0.044l0.108,-0c0.008,-0 0.014,0.006 0.014,0.014l0,0.817c0,0.008 -0.006,0.014 -0.014,0.014l-0.108,0l0,0.044l0.136,-0c0.027,-0 0.046,-0.019 0.046,-0.046l-0,-0.841c-0,-0.027 -0.019,-0.046 -0.046,-0.046l-0.136,0Z" style="fill:#ec4899;fill-rule:nonzero;"/></g><g transform="matrix(30,0,0,30,50.7735,26.7612)"><path d="M0.283,-0.497c-0.163,0 -0.223,0.069 -0.223,0.255c0,0.186 0.06,0.254 0.223,0.254c0.163,-0 0.222,-0.068 0.222,-0.254c-0,-0.186 -0.059,-0.255 -0.222,-0.255Zm-0,0.055c0.117,-0 0.156,0.047 0.156,0.2c0,0.153 -0.039,0.2 -0.156,0.2c-0.117,0 -0.156,-0.047 -0.156,-0.2c-0,-0.153 0.039,-0.2 0.156,-0.2Z" style="fill:#e6edf3;fill-rule:nonzero;"/></g><g transform="matrix(30,0,0,30,67.7235,26.7612)"><path d="M0.283,-0.497c-0.163,0 -0.223,0.069 -0.223,0.255c0,0.186 0.06,0.254 0.223,0.254c0.163,-0 0.222,-0.068 0.222,-0.254c-0,-0.186 -0.059,-0.255 -0.222,-0.255Zm-0,0.055c0.117,-0 0.156,0.047 0.156,0.2c0,0.153 -0.039,0.2 -0.156,0.2c-0.117,0 -0.156,-0.047 -0.156,-0.2c-0,-0.153 0.039,-0.2 0.156,-0.2Z" style="fill:#e6edf3;fill-rule:nonzero;"/></g><g transform="matrix(30,0,0,30,84.6735,26.7612)"><path d="M0.148,-0.7l-0.063,0l0,0.592c0,0.075 0.044,0.116 0.112,0.116c0.022,-0 0.064,-0.004 0.08,-0.01l-0.007,-0.048l-0.051,0c-0.046,0 -0.071,-0.024 -0.071,-0.07l-0,-0.58Z" style="fill:#e6edf3;fill-rule:nonzero;"/></g><g transform="matrix(30,0,0,30,93.2835,26.7612)"><path d="M0.33,-0.497c-0.066,0 -0.13,0.034 -0.192,0.095c0.007,-0.034 0.007,-0.063 0.007,-0.104l-0,-0.194l-0.063,0l0,0.679c0.067,0.021 0.148,0.033 0.216,0.033c0.157,-0 0.208,-0.083 0.208,-0.255c-0,-0.183 -0.053,-0.254 -0.176,-0.254Zm-0.033,0.454c-0.048,0.001 -0.098,-0.004 -0.152,-0.019l-0,-0.297c0.066,-0.051 0.111,-0.082 0.167,-0.082c0.098,-0 0.128,0.052 0.128,0.198c0,0.148 -0.04,0.2 -0.143,0.2Z" style="fill:#e6edf3;fill-rule:nonzero;"/></g><g transform="matrix(30,0,0,30,110.263,26.7612)"><path d="M0.283,-0.497c-0.163,0 -0.223,0.069 -0.223,0.255c0,0.186 0.06,0.254 0.223,0.254c0.163,-0 0.222,-0.068 0.222,-0.254c-0,-0.186 -0.059,-0.255 -0.222,-0.255Zm-0,0.055c0.117,-0 0.156,0.047 0.156,0.2c0,0.153 -0.039,0.2 -0.156,0.2c-0.117,0 -0.156,-0.047 -0.156,-0.2c-0,-0.153 0.039,-0.2 0.156,-0.2Z" style="fill:#e6edf3;fill-rule:nonzero;"/></g><g transform="matrix(30,0,0,30,126.883,26.7612)"><path d="M0.271,-0.227l0.151,0.227l0.071,-0l-0.17,-0.251l0.157,-0.233l-0.07,0l-0.137,0.206l-0.026,0l-0.137,-0.206l-0.07,0l0.157,0.233l-0.169,0.251l0.07,-0l0.151,-0.227l0.022,-0Z" style="fill:#e6edf3;fill-rule:nonzero;"/></g></g></svg>