<?xml version="1.0" encoding="UTF-8" standalone="no"?><!DOCTYPE svg PUBLIC "-//W3C//DTD SVG 1.1//EN" "http://www.w3.org/Graphics/SVG/1.1/DTD/svg11.dtd"><svg width="100%" height="100%" viewBox="0 0 2130 560" version="1.1" xmlns="http://www.w3.org/2000/svg" xmlns:xlink="http://www.w3.org/1999/xlink" xml:space="preserve" xmlns:serif="http://www.serif.com/" style="fill-rule:evenodd;clip-rule:evenodd;stroke-linejoin:round;stroke-miterlimit:2;"><g transform="matrix(4.16667,0,0,4.16667,-318.226,-1060.85)"><g transform="matrix(144,0,0,144,61.1012,365.187)"><path d="M0.262,-0.746l-0,-0.022l-0.125,0c-0.018,0 -0.031,0.013 -0.031,0.031l0,0.871c0,0.018 0.013,0.031 0.031,0.031l0.125,-0l-0,-0.022l-0.12,0c-0.007,0 -0.012,-0.005 -0.012,-0.012l-0,-0.865c-0,-0.007 0.005,-0.012 0.012,-0.012l0.12,-0Z" style="fill:#ec4899;fill-rule:nonzero;"/></g><g transform="matrix(144,0,0,144,106.029,365.187)"><path d="M0.557,-0.612l-0,-0.078l-0.533,0l0,0.078l0.222,-0l0,0.612l0.088,-0l-0,-0.612l0.223,-0Z" style="fill:#ec4899;fill-rule:nonzero;"/></g><g transform="matrix(144,0,0,144,189.693,365.187)"><path d="M0.05,-0.768l0,0.022l0.12,-0c0.007,-0 0.012,0.005 0.012,0.012l0,0.865c0,0.007 -0.005,0.012 -0.012,0.012l-0.12,0l0,0.022l0.125,-0c0.018,-0 0.031,-0.013 0.031,-0.031l-0,-0.871c-0,-0.018 -0.013,-0.031 -0.031,-0.031l-0.125,0Z" style="fill:#ec4899;fill-rule:nonzero;"/></g><g transform="matrix(119,0,0,119,234.621,365.187)"><path d="M0.28,-0.492c-0.155,0 -0.21,0.067 -0.21,0.252c0,0.185 0.055,0.252 0.21,0.252c0.155,-0 0.21,-0.067 0.21,-0.252c-0,-0.185 -0.055,-0.252 -0.21,-0.252Zm-0,0.023c0.136,-0 0.185,0.056 0.185,0.229c0,0.173 -0.049,0.229 -0.185,0.229c-0.136,0 -0.185,-0.056 -0.185,-0.229c-0,-0.173 0.049,-0.229 0.185,-0.229Z" style="fill:#e6edf3;fill-rule:nonzero;"/></g><g transform="matrix(119,0,0,119,301.261,365.187)"><path d="M0.28,-0.492c-0.155,0 -0.21,0.067 -0.21,0.252c0,0.185 0.055,0.252 0.21,0.252c0.155,-0 0.21,-0.067 0.21,-0.252c-0,-0.185 -0.055,-0.252 -0.21,-0.252Zm-0,0.023c0.136,-0 0.185,0.056 0.185,0.229c0,0.173 -0.049,0.229 -0.185,0.229c-0.136,0 -0.185,-0.056 -0.185,-0.229c-0,-0.173 0.049,-0.229 0.185,-0.229Z" style="fill:#e6edf3;fill-rule:nonzero;"/></g><g transform="matrix(119,0,0,119,367.901,365.187)"><path d="M0.119,-0.7l-0.024,0l0,0.605c0,0.065 0.04,0.101 0.101,0.101c0.018,-0 0.051,-0.002 0.064,-0.006l-0.003,-0.016l-0.058,0c-0.051,0 -0.08,-0.028 -0.08,-0.08l-0,-0.604Z" style="fill:#e6edf3;fill-rule:nonzero;"/></g><g transform="matrix(119,0,0,119,400.031,365.187)"><path d="M0.314,-0.492c-0.066,0 -0.13,0.039 -0.201,0.102c0.004,-0.031 0.003,-0.054 0.003,-0.093l-0,-0.217l-0.024,0l0,0.681c0.071,0.019 0.135,0.031 0.202,0.031c0.14,-0 0.194,-0.07 0.194,-0.252c-0,-0.182 -0.048,-0.252 -0.174,-0.252Zm-0.02,0.481c-0.057,0 -0.109,-0.006 -0.178,-0.025l-0,-0.333c0.08,-0.066 0.135,-0.1 0.198,-0.1c0.107,-0 0.149,0.061 0.149,0.229c0,0.168 -0.048,0.229 -0.169,0.229Z" style="fill:#e6edf3;fill-rule:nonzero;"/></g><g transform="matrix(119,0,0,119,466.433,365.187)"><path d="M0.28,-0.492c-0.155,0 -0.21,0.067 -0.21,0.252c0,0.185 0.055,0.252 0.21,0.252c0.155,-0 0.21,-0.067 0.21,-0.252c-0,-0.185 -0.055,-0.252 -0.21,-0.252Zm-0,0.023c0.136,-0 0.185,0.056 0.185,0.229c0,0.173 -0.049,0.229 -0.185,0.229c-0.136,0 -0.185,-0.056 -0.185,-0.229c-0,-0.173 0.049,-0.229 0.185,-0.229Z" style="fill:#e6edf3;fill-rule:nonzero;"/></g><g transform="matrix(119,0,0,119,531.764,365.187)"><path d="M0.264,-0.24l0.175,0.24l0.03,-0l-0.182,-0.25l0.169,-0.23l-0.03,0l-0.16,0.218l-0.027,0l-0.16,-0.218l-0.03,0l0.169,0.23l-0.182,0.25l0.03,-0l0.175,-0.24l0.023,-0Z" style="fill:#e6edf3;fill-rule:nonzero;"/></g></g></svg>